# xmcd
# 
# Track frame offsets:
#     150
#     16420
#     37895
#     55123
#     73494
#     93358
#     109799
#     123687
#     137984
#     153119
#     171048
# 
# Disc length: 2537
# 
# Revision: 0
# Processed by: cddbd v1.5.2PL0 Copyright (c) Steve Scherf et al.
# Submitted via: fre:ac v1.0.27
# 
DISCID=9309e70b
DTITLE=Kopek - White Collar Lies
DYEAR=2010
DGENRE=Hard Rock
TTITLE0=Cocaine Chest Pains
TTITLE1=White Collar Lies
TTITLE2=Fever
TTITLE3=Love is Dead
TTITLE4=Floridian
TTITLE5=Sub Human
TTITLE6=The Easy Way (D.B. Cooper)
TTITLE7=Bring It On Home
TTITLE8=Love Sick Blues
TTITLE9=Bigger Than Us All
TTITLE10=Sin City
EXTD=
EXTT0=
EXTT1=
EXTT2=
EXTT3=
EXTT4=
EXTT5=
EXTT6=
EXTT7=
EXTT8=
EXTT9=
EXTT10=
PLAYORDER=
